<?xml version="1.0" encoding="UTF-8"?>
<svg width="126px" height="65px" viewBox="0 0 126 65" version="1.1" xmlns="http://www.w3.org/2000/svg" xmlns:xlink="http://www.w3.org/1999/xlink">
    <!-- Generator: sketchtool 52.6 (67491) - http://www.bohemiancoding.com/sketch -->
    <title>A07444F8-CE50-405B-BCBC-C9F1CFECFA5B</title>
    <desc>Created with sketchtool.</desc>
    <defs>
        <polygon id="path-1" points="0.512060127 0.58060241 19.5608449 0.58060241 19.5608449 40.5860193 0.512060127 40.5860193"></polygon>
        <polygon id="path-3" points="0.194488338 0.527760241 23.7613671 0.527760241 23.7613671 25.5980253 0.194488338 25.5980253"></polygon>
        <polygon id="path-5" points="0.554491139 0.164479518 55.7222127 0.164479518 55.7222127 20.5783133 0.554491139 20.5783133"></polygon>
    </defs>
    <g id="Symbols" stroke="none" stroke-width="1" fill="none" fill-rule="evenodd">
        <g id="Logo_FutureEats">
            <g id="Group-20" transform="translate(0.000000, 1.000000)">
                <path d="M6.77947194,1 L5.57486406,6.67465011 L11.7939346,6.67465011 L13,1 L6.77947194,1 Z M4.97219575,9.479463 L0,33 L6.21979932,33 L11.1912663,9.479463 L4.97219575,9.479463 Z" id="Fill-1" fill="#FEFEFE"></path>
                <g id="Group-19" transform="translate(9.000000, 0.000000)">
                    <g id="Group-4">
                        <mask id="mask-2" fill="white">
                            <use xlink:href="#path-1"></use>
                        </mask>
                        <g id="Clip-3"></g>
                        <path d="M19.5608449,0.711127711 L18.4671171,5.74693494 C18.1316677,5.70357349 17.5562943,5.6705012 16.7395158,5.64845301 C15.9227373,5.6278747 15.3140411,5.80793494 14.9134272,6.19157349 C14.5120728,6.57521205 14.2677057,6.99780241 14.1803259,7.46081446 C14.0788766,7.92456145 13.9322563,8.59041687 13.7434272,9.45838072 L17.8332437,9.45838072 L16.8920601,13.8217181 L12.8029842,13.8217181 L6.72268671,40.5860193 L0.512060127,40.5860193 L6.59161709,13.8217181 L3.11419937,13.8217181 L4.05464241,9.45838072 L7.46689557,9.45838072 L7.79419937,7.93926024 C8.33402848,5.40665783 9.13599684,3.66264578 10.2001044,2.70795904 C11.4100918,1.2895253 13.7434272,0.580308434 17.1986297,0.580308434 C17.5925791,0.580308434 17.9458006,0.59133253 18.2597753,0.613380723 C18.572269,0.635428916 19.0062057,0.667031325 19.5608449,0.711127711" id="Fill-2" fill="#FEFEFE" mask="url(#mask-2)"></path>
                    </g>
                    <path d="M40.7125937,20.6263783 L41.6530367,16.2196795 L44.9771696,16.2196795 L46.3989418,9.6221253 L52.5658785,9.6221253 L51.1441063,16.2196795 L55.0154734,16.2196795 L54.0750304,20.6263783 L50.2044038,20.6263783 L47.5141443,33.1291735 C47.3097646,34.098559 47.306062,34.7034145 47.5030367,34.9415349 C47.7000114,35.1803904 48.4323722,35.3001855 49.7008595,35.3001855 C49.8904291,35.3001855 50.0911063,35.2965108 50.3021506,35.2891614 C50.5139354,35.281812 50.7286823,35.270788 50.9478722,35.2560892 L49.9415241,39.8795952 L46.9676506,39.9883663 C44.0071063,40.089053 42.1047456,39.5834145 41.2590873,38.4685108 C40.7199987,37.7600289 40.6029987,36.6671735 40.9095684,35.1914145 L44.0367266,20.6263783 L40.7125937,20.6263783 Z" id="Fill-5" fill="#FEFEFE"></path>
                    <path d="M95.6178057,8.72013373 L94.2619386,15.0582542 C93.8827994,15.0148928 93.5399449,14.9862301 93.2333753,14.9715313 C92.9275462,14.9575675 92.6794766,14.9494831 92.489907,14.9494831 C89.9825525,14.9494831 88.1231411,15.7601217 86.9131538,17.3806639 C86.2422551,18.2927241 85.7024259,19.696459 85.294407,21.5918687 L82.8892424,32.9003867 L76.6127108,32.9003867 L81.6644449,9.24120602 L87.6136728,9.24120602 L86.7383943,13.364953 C88.0357614,11.7877723 89.1006095,10.7103506 89.9314576,10.1312181 C91.3169449,9.16183253 92.9423563,8.67677229 94.8076918,8.67677229 C94.9254323,8.67677229 95.0231791,8.68044699 95.1038943,8.68779639 C95.183869,8.69514578 95.3549259,8.70543494 95.6178057,8.72013373" id="Fill-7" fill="#FEFEFE"></path>
                    <g id="Group-11" transform="translate(92.563291, 8.084337)">
                        <mask id="mask-4" fill="white">
                            <use xlink:href="#path-3"></use>
                        </mask>
                        <g id="Clip-10"></g>
                        <path d="M7.65402152,10.620688 L17.3420658,10.620688 C17.5893949,8.98544699 17.3531734,7.74486867 16.6311797,6.89821807 C15.9099266,6.05156747 14.8850658,5.62824217 13.558819,5.62824217 C12.1148316,5.62824217 10.9018823,6.07655542 9.91700886,6.97391687 C8.93287595,7.87127831 8.1783,9.08686867 7.65402152,10.620688 M22.9625089,5.12921807 C23.6037873,6.53295301 23.859262,8.16084458 23.7281924,10.0128928 C23.6704329,11.0976639 23.4075532,12.6608807 22.9410342,14.7018084 L6.62619873,14.7018084 C6.20262911,17.0749289 6.59583797,18.7388325 7.80730633,19.6942542 C8.53522405,20.2866157 9.50454684,20.5835313 10.7152747,20.5835313 C11.9985722,20.5835313 13.1211797,20.221941 14.083838,19.4980253 C14.5933063,19.1077723 15.0968506,18.5646518 15.5929899,17.8708687 L21.9569013,17.8708687 C21.4896418,19.2738687 20.4477494,20.7003867 18.8290025,22.1460133 C16.2920278,24.4471096 13.1863443,25.5980253 9.51269241,25.5980253 C6.47957848,25.5980253 4.01221139,24.6279048 2.10985063,22.6891337 C0.207489873,20.7496277 -0.278282278,17.5960012 0.654755696,13.2260494 C1.53003418,9.13023012 3.24652785,5.98983253 5.80571772,3.80485663 C8.36416709,1.61988072 11.3128633,0.527760241 14.6525468,0.527760241 C16.6348823,0.527760241 18.3439709,0.8967 19.7812937,1.63457952 C21.2163949,2.37245904 22.2775405,3.53733855 22.9625089,5.12921807" id="Fill-9" fill="#FEFEFE" mask="url(#mask-4)"></path>
                    </g>
                    <path d="M19.8203924,9.46271687 L16.9072405,23.0260301 C15.9512468,29.3935482 20.2335949,33.6826566 26.1635696,33.6826566 C32.0935443,33.6826566 36.6387722,29.6235843 38.3819241,23.0260301 L41.3402468,9.46271687 L19.8203924,9.46271687 Z" id="Fill-12" fill="#FEFEFE"></path>
                    <path d="M58.0625089,9.46271687 L55.149357,23.0260301 C54.1933633,29.3935482 58.4757114,33.6826566 64.4056861,33.6826566 C70.3356608,33.6826566 74.8808886,29.6235843 76.6240405,23.0260301 L79.5823633,9.46271687 L58.0625089,9.46271687 Z" id="Fill-14" fill="#FEFEFE"></path>
                    <g id="Group-18" transform="translate(17.031646, 40.421687)">
                        <mask id="mask-6" fill="white">
                            <use xlink:href="#path-5"></use>
                        </mask>
                        <g id="Clip-17"></g>
                        <path d="M0.554491139,0.164479518 C0.554491139,0.164479518 14.809238,26.071106 43.1336051,4.39038313 L37.5798076,0.164479518 L55.7222127,0.164479518 L52.481757,19.6403831 L48.5022759,12.8421904 C48.5022759,12.8421904 42.9484785,17.7537928 34.4326557,19.666841 C22.6889658,22.3052747 6.34895316,20.1871783 0.554491139,0.164479518" id="Fill-16" fill="#FEFEFE" mask="url(#mask-6)"></path>
                    </g>
                </g>
            </g>
        </g>
    </g>
</svg>